# AST/ASF file generated using VICON BodyLanguage
# -----------------------------------------------
:version 1.10
:name VICON
:units
  mass 1.0
  length 0.45
  angle deg
:documentation
   .ast/.asf automatically generated from VICON data using
   VICON BodyBuilder and BodyLanguage model FoxedUp or BRILLIANT.MOD
:root
   order TX TY TZ RX RY RZ
   axis XYZ
   position 0 0 0  
   orientation 0 0 0 
:bonedata
  begin
     id 1 
     name lhipjoint
     direction 0.566809 -0.746272 0.349008 
     length 2.40479 
     axis 0 0 0  XYZ
  end
  begin
     id 2 
     name lfemur
     direction 0.34202 -0.939693 0  
     length 7.1578  
     axis 0 0 20  XYZ
    dof rx ry rz
    limits (-160.0 20.0)
           (-70.0 70.0)
           (-60.0 70.0)
  end
  begin
     id 3 
     name ltibia
     direction 0.34202 -0.939693 0   
     length 7.49137   
     axis 0 0 20   XYZ
    dof rx
    limits (-10.0 170.0)
  end
  begin
     id 4 
     name lfoot
     direction 0.0665746 -0.182912 0.980873   
     length 2.36784   
     axis -90 7.62852e-016 20   XYZ
    dof rx rz
    limits (-45.0 90.0)
           (-70.0 20.0)
  end
  begin
     id 5 
     name ltoes
     direction 1.53601e-011 -4.22058e-011 1   
     length 1.18966   
     axis -90 7.62852e-016 20   XYZ
    dof rx
    limits (-90.0 20.0)
  end
  begin
     id 6 
     name rhipjoint
     direction -0.550236 -0.756381 0.353735   
     length 2.37265  
     axis 0 0 0  XYZ 
  end
  begin
     id 7 
     name rfemur
     direction -0.34202 -0.939693 0   
     length 7.43386   
     axis 0 0 -20   XYZ
    dof rx ry rz
    limits (-160.0 20.0)
           (-70.0 70.0)
           (-70.0 60.0)
  end
  begin
     id 8 
     name rtibia
     direction -0.34202 -0.939693 0   
     length 7.50908   
     axis 0 0 -20   XYZ
    dof rx
    limits (-10.0 170.0)
 end
 begin
     id 9 
     name rfoot
     direction -0.0683029 -0.187661 0.979856   
     length 2.41173  
     axis -90 -7.62852e-016 -20   XYZ
    dof rx rz
    limits (-45.0 90.0)
           (-20.0 70.0)
  end
  begin
     id 10 
     name rtoes
     direction -1.53528e-011 -4.21968e-011 1   
     length 1.21082   
     axis -90 -7.62852e-016 -20   XYZ
    dof rx
    limits (-90.0 20.0)
  end
  begin
     id 11 
     name lowerback
     direction 0.013823 0.995423 -0.0945635   
     length 2.04495   
     axis 0 0 0   XYZ
    dof rx ry rz
    limits (-20.0 45.0)
           (-30.0 30.0)
           (-30.0 30.0)
  end
  begin
     id 12 
     name upperback
     direction 0.0276657 0.9994 -0.020853   
     length 2.05008   
     axis 0 0 0   XYZ
    dof rx ry rz
    limits (-20.0 45.0)
           (-30.0 30.0)
           (-30.0 30.0)
  end
  begin
     id 13 
     name thorax
     direction 0.019782 0.999531 0.0233827   
     length 2.06488   
     axis 0 0 0   XYZ
    dof rx ry rz
    limits (-20.0 45.0)
           (-30.0 30.0)
           (-30.0 30.0)
  end
  begin
     id 14 
     name lowerneck
     direction -0.0308541 0.994709 0.0979874   
     length 1.75553   
     axis 0 0 0   XYZ
    dof rx ry rz
    limits (-20.0 45.0)
           (-30.0 30.0)
           (-30.0 30.0)
  end
  begin
     id 15 
     name upperneck
     direction 0.0588398 0.995804 -0.0700903   
     length 1.76878   
     axis 0 0 0   XYZ
    dof rx ry rz
    limits (-20.0 45.0)
           (-30.0 30.0)
           (-30.0 30.0)
  end
  begin
     id 16
     name head
     direction 0.0209966 0.999159 -0.0352225  
     length 1.77193  
     axis 0 0 0   XYZ
    dof rx ry rz
    limits (-20.0 45.0)
           (-30.0 30.0)
           (-30.0 30.0)
  end
  begin
     id 17 
     name lclavicle
     direction 0.938182 0.335073 -0.0868338  
     length 3.58396  
     axis 0 0 0   XYZ
    dof ry rz
    limits (-20.0 10.0)
           (0.0 20.0)
  end
  begin
     id 18 
     name lhumerus
     direction 1 -4.48971e-011 -1.26313e-017   
     length 4.983   
     axis 180 -30 -90   XYZ
    dof rx ry rz
    limits (-60.0 90.0)
           (-90.0 90.0)
           (-90.0 90.0)
  end
  begin
     id 19
     name lradius
     direction 1 -4.48948e-011 -5.89033e-027   
     length 3.48356   
     axis 180 -30 -90   XYZ
    dof rx
    limits (-10.0 170.0)
  end
  begin
     id 20
     name lwrist
     direction 1 -4.48977e-011 -1.48983e-026   
     length 1.74178   
     axis 9.0955e-015 90 90   XYZ
    dof ry
    limits (-180.0 0.0)
 end
  begin
     id 21 
     name lhand
     direction 1 -4.49046e-011 -2.98066e-026   
     length 0.715259   
     axis 1.90115e-014 90 90   XYZ
    dof rx rz
    limits (-90.0 90.0)
           (-45.0 45.0)
  end
  begin
     id 22 
     name lfingers
     direction 1 -4.48907e-011 -5.95731e-026   
     length 0.576661   
     axis 3.80223e-014 90 90   XYZ
    dof rx
    limits (0.0 90.0)
  end
  begin
     id 23
     name lthumb
     direction 0.707107 -6.34963e-011 0.707107   
     length 0.827973   
     axis -90 45 -3.84942e-014   XYZ
    dof rx rz
    limits (-45.0 45.0)
           (-45.0 45.0)
  end
  begin
     id 24 
     name rclavicle
     direction -0.909637 0.398485 -0.11735   
     length 3.44819  
     axis 0 0 0   XYZ 
    dof ry rz
    limits (-10.0 20.0)
           (-20.0 0.0)
  end
  begin
     id 25 
     name rhumerus
     direction -1 -4.48978e-011 -1.09333e-027  
     length 5.2419   
     axis 180 30 90   XYZ
    dof rx ry rz
    limits (-90.0 60.0)
           (-90.0 90.0)
           (-90.0 90.0)
  end
  begin
     id 26 
     name rradius
     direction -1 -4.48953e-011 -7.61841e-027   
     length 3.44417   
     axis 180 30 90   XYZ
    dof rx
    limits (-10.0 170.0)
  end
  begin
     id 27 
     name rwrist
     direction -1 -4.48977e-011 -1.48983e-026   
     length 1.72209   
     axis 9.0955e-015 -90 -90   XYZ
    dof ry
    limits (-180.0 0.0)
  end
  begin
     id 28
     name rhand
     direction -1 -4.49027e-011 -2.98038e-026   
     length 0.622529   
     axis 1.90115e-014 -90 -90   XYZ
    dof rx rz
    limits (-90.0 90.0)
           (-45.0 45.0)
  end
  begin
     id 29
     name rfingers
     direction -1 -4.48838e-011 -5.95531e-026   
     length 0.501899   
     axis 3.80223e-014 -90 -90   XYZ
    dof rx
    limits (0.0 90.0)
  end
  begin
     id 30
     name rthumb
     direction -0.707107 -6.34937e-011 0.707107   
     length 0.720629   
     axis -90 -45 3.84942e-014   XYZ
    dof rx rz
    limits (-45.0 45.0)
           (-45.0 45.0)
  end
:hierarchy
  begin
    root lhipjoint rhipjoint lowerback
    lhipjoint lfemur
    lfemur ltibia
    ltibia lfoot
    lfoot ltoes
    rhipjoint rfemur
    rfemur rtibia
    rtibia rfoot
    rfoot rtoes
    lowerback upperback
    upperback thorax
    thorax lowerneck lclavicle rclavicle
    lowerneck upperneck
    upperneck head
    lclavicle lhumerus
    lhumerus lradius
    lradius lwrist
    lwrist lhand lthumb
    lhand lfingers
    rclavicle rhumerus
    rhumerus rradius
    rradius rwrist
    rwrist rhand rthumb
    rhand rfingers
  end

#!OML:ASF F:\VICON\USERDATA\Patient Classification 1\PLAYGROUND\JustinFriday\JustinFriday.ASF
:FULLY-SPECIFIED
:DEGREES
538
root 10.81 17.9495 52.6533 -359.936 -225.601 5.54941
lowerback 12.9618 3.4298 4.07807
upperback 3.64979 5.39643 1.27464
thorax -3.15851 2.78197 -1.783
lowerneck -1.60573 1.83181 0.209243
upperneck -23.9664 6.55019 8.00162
head -7.34697 3.39061 2.09716
rclavicle 1.30701e-014 -3.18055e-015
rhumerus -20.8406 -14.4539 -80.0633
rradius 26.561
rwrist -8.86881
rhand -13.5742 -14.1177
rfingers 7.12502
rthumb 12.5396 -43.7214
lclavicle 1.30701e-014 -3.18055e-015
lhumerus -31.984 7.31436 74.9991
lradius 35.8257
lwrist 5.62389
lhand -16.5956 -6.88369
lfingers 7.12502
lthumb 9.6255 22.8764
rfemur -12.0985 14.2576 20.7671
rtibia 33.3215
rfoot -13.1367 -2.42142
rtoes 1.83804
lfemur -2.29137 -6.84856 -12.9857
ltibia 32.8899
lfoot -12.191 -25.2836
ltoes 19.3511
539
root 10.8815 17.9785 52.6751 -359.313 -225.253 6.10754
lowerback 12.401 3.81328 4.37755
upperback 3.68953 5.91641 1.41634
thorax -2.76774 3.05035 -1.82483
lowerneck -1.60341 1.53535 0.846235
upperneck -23.5767 5.93112 7.40348
head -7.1586 3.0757 1.83205
rclavicle 8.19241e-014 -1.45113e-014
rhumerus -21.0033 -14.6756 -79.9108
rradius 26.8972
rwrist -9.65195
rhand -14.4482 -14.4682
rfingers 7.12502
rthumb 11.6969 -44.1216
lclavicle 8.19241e-014 -1.45113e-014
lhumerus -31.2356 7.15547 75.1106
lradius 34.4468
lwrist 6.02131
lhand -15.5501 -7.83528
lfingers 7.12502
lthumb 10.6341 21.8756
rfemur -11.8769 13.5374 21.3507
rtibia 32.632
rfoot -13.086 -1.89314
rtoes 2.4248
lfemur -3.08912 -7.01121 -12.2472
ltibia 33.8179
lfoot -11.1893 -25.2752
ltoes 18.8865
540
root 10.9526 18.0239 52.6959 -358.861 -224.75 6.49069
lowerback 11.8728 4.16374 4.60381
upperback 3.73926 6.38147 1.53184
thorax -2.38959 3.2929 -1.83895
lowerneck -1.19916 1.19747 1.46189
upperneck -23.7418 5.364 6.76694
head -7.2347 2.77985 1.54471
rclavicle -2.46741e-014 -6.16232e-015
rhumerus -21.134 -15.259 -79.6421
rradius 27.2192
rwrist -9.74652
rhand -15.0194 -14.9702
rfingers 7.12502
rthumb 11.146 -44.6541
lclavicle -2.46741e-014 -6.16232e-015
lhumerus -30.7676 6.5732 75.4505
lradius 33.3493
lwrist 6.11778
lhand -15.2467 -8.16879
lfingers 7.12502
lthumb 10.9268 21.5269
rfemur -11.4906 13.141 21.8843
rtibia 31.8037
rfoot -12.8547 -1.78098
rtoes 2.58976
lfemur -3.7618 -7.48659 -11.7468
ltibia 34.6304
lfoot -11.0011 -24.6301
ltoes 16.2115
541
root 11.0306 18.0696 52.7204 -358.379 -224.204 6.87064
lowerback 11.2283 4.52286 4.77133
upperback 3.78241 6.8396 1.64628
thorax -1.9602 3.53316 -1.80162
lowerneck -0.288103 0.826017 2.32161
upperneck -24.4321 4.79597 5.8282
head -7.57349 2.46981 1.10697
rclavicle 6.65929e-015 2.5842e-015
rhumerus -21.328 -15.9197 -79.3821
rradius 27.4471
rwrist -9.83178
rhand -15.3307 -14.9573
rfingers 7.12502
rthumb 10.8458 -44.6572
lclavicle 6.65929e-015 2.5842e-015
lhumerus -30.5283 5.88939 75.7433
lradius 32.6321
lwrist 5.9072
lhand -15.5213 -7.78572
lfingers 7.12502
lthumb 10.662 21.9238
rfemur -11.1475 12.818 22.4844
rtibia 31.0495
rfoot -12.5587 -1.95889
rtoes 2.60997
lfemur -4.39708 -7.88044 -11.1733
ltibia 35.4347
lfoot -10.7965 -23.9019
ltoes 14.329
542
root 11.1135 18.0862 52.749 -357.704 -223.68 7.26588
lowerback 10.4183 4.94405 4.7881
upperback 3.74215 7.348 1.79359
thorax -1.54648 3.79271 -1.6326
lowerneck 0.0140937 0.507361 3.26345
upperneck -24.2718 4.12542 4.81566
head -7.52554 2.12423 0.655464
rclavicle -3.62782e-015 -1.23246e-014
rhumerus -21.632 -16.7413 -79.0078
rradius 27.6939
rwrist -9.56654
rhand -14.88 -14.8915
rfingers 7.12502
rthumb 11.2805 -44.5682
lclavicle -3.62782e-015 -1.23246e-014
lhumerus -30.6441 5.17248 76.0426
lradius 32.4924
lwrist 5.81788
lhand -15.4838 -7.59822
lfingers 7.12502
lthumb 10.6981 22.1094
rfemur -11.0823 12.4774 23.0929
rtibia 30.4056
rfoot -12.3316 -2.16405
rtoes 2.23383
lfemur -5.65757 -7.15152 -10.1991
ltibia 36.3266
lfoot -7.946 -24.982
ltoes 17.5077
543
root 11.1588 18.0876 52.7746 -357.52 -223.181 7.41324
lowerback 10.3608 5.30564 5.03822
upperback 3.68806 7.85139 1.8267
thorax -1.51225 4.04427 -1.77865
lowerneck -0.854617 0.281821 4.13581
upperneck -22.6208 3.34108 3.94643
head -6.79391 1.74119 0.300179
rclavicle -4.23163e-014 7.7526e-015
rhumerus -21.9351 -17.5825 -78.5756
rradius 27.9026
rwrist -9.57555
rhand -15.2087 -14.505
rfingers 7.12502
rthumb 10.9635 -44.1988
lclavicle -4.23163e-014 7.7526e-015
lhumerus -30.4579 4.45489 76.3674
lradius 31.8354
lwrist 5.58995
lhand -15.7186 -8.00852
lfingers 7.12502
lthumb 10.4716 21.7107
rfemur -10.9896 11.4467 23.2643
rtibia 29.9794
rfoot -12.1401 -1.66307
rtoes 1.83525
lfemur -6.78864 -6.65764 -9.7812
ltibia 37.3895
lfoot -5.54131 -25.3261
ltoes 19.2073
544
root 11.2122 18.1035 52.7949 -357.536 -222.568 7.30502
lowerback 10.1762 5.63441 5.07712
upperback 3.69275 8.27863 1.81406
thorax -1.37191 4.26122 -1.82945
lowerneck -0.3322 -0.196831 5.55613
upperneck -22.6012 2.39936 2.38548
head -6.85025 1.25238 -0.392516
rclavicle 2.6339e-014 -6.0033e-014
rhumerus -22.2062 -18.0994 -78.2209
rradius 28.3121
rwrist -10.0597
rhand -14.7404 -15.1527
rfingers 7.12502
rthumb 11.4151 -44.822
lclavicle 2.6339e-014 -6.0033e-014
lhumerus -30.1925 3.62234 76.7329
lradius 31.2082
lwrist 5.33986
lhand -17.6584 -7.51785
lfingers 7.12502
lthumb 8.59999 22.287
rfemur -10.8353 10.4616 23.3182
rtibia 29.6964
rfoot -12.1329 -1.38357
rtoes 1.29807
lfemur -7.92578 -6.51719 -9.63201
ltibia 38.6857
lfoot -3.65592 -25.089
ltoes 20.3152
545
root 11.2673 18.1012 52.8188 -357.687 -221.951 7.11099
lowerback 10.0875 5.98219 5.00435
upperback 3.70314 8.72729 1.80037
thorax -1.29226 4.487 -1.83238
lowerneck -0.702591 -0.504658 6.26173
upperneck -21.4224 1.62263 1.54465
head -6.40305 0.865248 -0.720056
rclavicle 8.55768e-014 -7.15625e-015
rhumerus -22.6104 -18.6406 -77.7893
rradius 28.7366
rwrist -10.3859
rhand -15.1691 -15.251
rfingers 7.12502
rthumb 11.0016 -44.9427
lclavicle 8.55768e-014 -7.15625e-015
lhumerus -30.0922 2.4629 77.191
lradius 31.0364
lwrist 5.16209
lhand -19.6825 -6.47338
lfingers 7.12502
lthumb 6.64629 23.4023
rfemur -10.478 9.70028 23.3281
rtibia 29.2287
rfoot -11.857 -0.960382
rtoes 3.56472
lfemur -9.02582 -5.92012 -9.43619
ltibia 39.9904
lfoot -1.48151 -24.8196
ltoes 21.3071
546
root 11.3232 18.102 52.8469 -357.439 -221.367 7.24419
lowerback 9.84725 6.34861 5.07599
upperback 3.63672 9.20559 1.85915
thorax -1.19812 4.72529 -1.82554
lowerneck -1.84148 -0.632956 6.56322
upperneck -18.9987 0.956166 1.03952
head -5.44569 0.537358 -0.86416
rclavicle 8.87574e-014 -2.74323e-014
rhumerus -23.0652 -19.2099 -77.384
rradius 29.3209
rwrist -10.8549
rhand -12.1466 -14.7696
rfingers 7.12502
rthumb 13.9157 -44.284
lclavicle 8.87574e-014 -2.74323e-014
lhumerus -29.8624 1.58494 77.5667
lradius 30.5309
lwrist 4.75554
lhand -18.963 -5.70871
lfingers 7.12502
lthumb 7.3409 24.1439
rfemur -10.2892 9.26006 23.5813
rtibia 28.7171
rfoot -11.5726 -0.516959
rtoes 7.34652
lfemur -10.1824 -4.8987 -8.9827
ltibia 41.4042
lfoot -2.48345 -24.4395
ltoes 17.4898
547
root 11.3822 18.1604 52.8682 -357.368 -220.949 7.19957
lowerback 9.60344 6.75544 5.04424
upperback 3.61558 9.72571 1.88023
thorax -1.06246 4.98639 -1.79759
lowerneck -2.46889 -0.913158 7.58713
upperneck -17.2026 0.117556 -0.199698
head -4.80173 0.104751 -1.3671
rclavicle -4.32357e-014 -1.61016e-014
rhumerus -23.4583 -19.81 -76.9504
rradius 29.7513
rwrist -11.302
rhand -12.2582 -15.1414
rfingers 7.12502
rthumb 13.8081 -44.6632
lclavicle -4.32357e-014 -1.61016e-014
lhumerus -29.6838 0.850903 77.929
lradius 30.0923
lwrist 4.48259
lhand -18.0762 -5.58642
lfingers 7.12502
lthumb 8.19679 24.2346
rfemur -10.0666 8.63255 23.7182
rtibia 28.2392
rfoot -11.5614 -0.406408
rtoes 6.12786
lfemur -11.0461 -4.21477 -8.86203
ltibia 42.7677
lfoot -3.85885 -23.9443
ltoes 14.2268
548
root 11.4362 18.1956 52.8887 -357.089 -220.54 7.2718
lowerback 9.24042 7.18041 5.14078
upperback 3.55921 10.2726 1.90672
thorax -0.876145 5.26139 -1.81419
lowerneck -2.95601 -1.20924 8.46193
upperneck -15.6195 -0.665161 -1.37883
head -4.26768 -0.298527 -1.83539
rclavicle 9.59136e-014 8.94531e-015
rhumerus -23.77 -20.76 -76.36
rradius 29.7818
rwrist -10.6798
rhand -15.34 -15.7701
rfingers 7.12502
rthumb 10.8368 -45.4705
lclavicle 9.59136e-014 8.94531e-015
lhumerus -29.7953 0.00544228 78.2492
lradius 30.343
lwrist 3.29353
lhand -17.8761 -4.96039
lfingers 7.12502
lthumb 8.38989 24.853
rfemur -10.0724 7.69041 23.9352
rtibia 27.6887
rfoot -11.4339 -0.328067
rtoes 3.64728
lfemur -12.2214 -3.38514 -8.6484
ltibia 44.2672
lfoot -4.38004 -23.3016
ltoes 12.064
